<?xml version="1.0" encoding="UTF-8" standalone="no"?>
<svg
   xmlns:dc="http://purl.org/dc/elements/1.1/"
   xmlns:cc="http://creativecommons.org/ns#"
   xmlns:rdf="http://www.w3.org/1999/02/22-rdf-syntax-ns#"
   xmlns:svg="http://www.w3.org/2000/svg"
   xmlns="http://www.w3.org/2000/svg"
   id="svg2042"
   version="1.1"
   viewBox="0 0 38.204662 18.057714"
   height="18.057714mm"
   width="38.204662mm">
  <defs
     id="defs2036" />
  <metadata
     id="metadata2039">
    <rdf:RDF>
      <cc:Work
         rdf:about="">
        <dc:format>image/svg+xml</dc:format>
        <dc:type
           rdf:resource="http://purl.org/dc/dcmitype/StillImage" />
        <dc:title></dc:title>
      </cc:Work>
    </rdf:RDF>
  </metadata>
  <g
     transform="translate(-13.41177,-111.07828)"
     id="layer1"
     style="display:inline">
    <g
       style="display:inline"
       id="g2686">
      <g
         id="g2640"
         style="display:inline">
        <path
           id="path1414"
           style="display:inline;fill:#97b0f9;fill-opacity:1;fill-rule:nonzero;stroke:none;stroke-width:0.352778"
           d="m 15.481518,112.62846 h 7.200194 v 14.1912 h -7.200194 z" />
        <path
           id="path1416"
           style="display:inline;fill:#0e44a5;fill-opacity:1;fill-rule:nonzero;stroke:none;stroke-width:0.352778"
           d="m 19.45697,114.49007 c -0.497417,1.30105 0.718256,2.51637 2.018947,2.02036 0.375003,-0.14464 0.675217,-0.44379 0.818445,-0.81985 0.49918,-1.30105 -0.717903,-2.51778 -2.018595,-2.01895 -0.375002,0.14323 -0.675216,0.44379 -0.818797,0.81844" />
        <path
           id="path1418"
           style="display:inline;fill:#0e44a5;fill-opacity:1;fill-rule:nonzero;stroke:none;stroke-width:0.352778"
           d="m 23.850464,111.54261 c 0,-0.14605 0,-0.29068 0,-0.43709 -1.112308,-0.0466 -4.357511,-0.29351 -6.081535,2.35515 -1.597025,2.45286 -1.482725,7.11094 -1.562453,15.67532 0.220486,0 0.37465,0 0.587022,0 1.737431,-13.80101 2.149475,-9.94409 7.056966,-10.10673 0,-0.20249 0,-0.44203 0,-0.63923 -6.570485,-0.50165 -6.129513,-6.34435 0,-6.84742" />
        <path
           id="path1420"
           style="display:inline;fill:#624cb4;fill-opacity:1;fill-rule:nonzero;stroke:none;stroke-width:0.352778"
           d="m 17.544562,124.38725 c -1.877131,-0.72496 -2.459919,-1.47179 -2.716389,-2.03552 -0.545394,-1.20157 4.265083,-0.37465 5.047897,-1.415 1.464733,-1.94874 -3.764844,-7.22524 -6.4643,-7.97348 2.601736,1.22238 6.772981,5.6829 5.695245,7.44961 -0.672395,1.10243 -5.113867,0.33514 -5.138561,1.55716 -0.01517,0.7747 0.961672,2.16359 3.319638,3.3528 1.763889,0.89041 6.391275,2.53436 6.391275,2.53436 l 0.0014,-1.61643 c 0,0 -4.481335,-1.21426 -6.136216,-1.8535" />
        <path
           id="path1422"
           style="display:inline;fill:#0e44a5;fill-opacity:1;fill-rule:nonzero;stroke:none;stroke-width:0.352778"
           d="m 16.338767,120.54656 c -0.02223,0.54434 -0.04022,1.11478 -0.05398,1.71838 0.525287,0.036 1.014237,0.003 1.5367,0.0346 0.138995,-0.68368 0.276931,-1.24425 0.42157,-1.70603 -0.654403,0.0332 -1.303514,0.2286 -1.904295,-0.0469" />
      </g>
      <g
         id="g2633"
         transform="translate(0,-0.06145311)"
         style="display:inline">
        <g
           style="font-style:normal;font-variant:normal;font-weight:normal;font-stretch:normal;font-size:5.0805px;font-family:Inter;-inkscape-font-specification:Inter;writing-mode:lr-tb;fill:#104490;fill-opacity:1;fill-rule:nonzero;stroke:none;stroke-width:0.34652"
           id="text1426"
           transform="scale(1.0180593,0.98226105)"
           aria-label="Fysioterapi">
          <path
             id="path72"
             style="font-style:normal;font-variant:normal;font-weight:500;font-stretch:normal;font-family:inter;-inkscape-font-specification:'inter Medium';fill:#0e44a5;fill-opacity:1;stroke-width:0.34652"
             d="m 25.454721,120.48694 v -3.69491 h 2.291277 v 0.4799 h -1.733793 v 1.1258 h 1.569615 v 0.4781 h -1.569615 v 1.61111 z" />
          <path
             id="path74"
             style="font-style:normal;font-variant:normal;font-weight:500;font-stretch:normal;font-family:inter;-inkscape-font-specification:'inter Medium';fill:#0e44a5;fill-opacity:1;stroke-width:0.34652"
             d="m 28.470472,121.51892 q -0.120879,0 -0.220107,-0.0198 -0.09923,-0.018 -0.147941,-0.0397 l 0.129899,-0.44202 q 0.221911,0.0613 0.371656,0.009 0.151549,-0.0505 0.254386,-0.31933 l 0.06675,-0.18403 -1.013935,-2.80726 h 0.577329 l 0.701817,2.15055 h 0.02887 l 0.701816,-2.15055 0.582742,0.005 -1.145638,3.13562 q -0.07938,0.21469 -0.202065,0.36264 -0.122683,0.14794 -0.292273,0.22371 -0.169591,0.0758 -0.393306,0.0758 z" />
          <path
             id="path76"
             style="font-style:normal;font-variant:normal;font-weight:500;font-stretch:normal;font-family:inter;-inkscape-font-specification:'inter Medium';fill:#0e44a5;fill-opacity:1;stroke-width:0.34652"
             d="m 33.000342,118.39231 -0.488926,0.0866 q -0.03067,-0.0938 -0.09742,-0.17861 -0.06495,-0.0848 -0.176807,-0.13892 -0.111858,-0.0541 -0.279644,-0.0541 -0.229128,0 -0.382481,0.10284 -0.153353,0.10103 -0.153353,0.2616 0,0.13892 0.102837,0.22371 0.102836,0.0848 0.331964,0.13892 l 0.440214,0.10104 q 0.382481,0.0884 0.570113,0.27242 0.187632,0.18403 0.187632,0.4781 0,0.24898 -0.144333,0.44383 -0.142528,0.19304 -0.398718,0.30309 -0.254386,0.11006 -0.589958,0.11006 -0.465472,0 -0.75955,-0.19846 -0.294077,-0.20026 -0.360831,-0.56831 l 0.521401,-0.0794 q 0.04871,0.20387 0.200261,0.30851 0.151549,0.10284 0.39511,0.10284 0.265211,0 0.423977,-0.11006 0.158765,-0.11186 0.158765,-0.27242 0,-0.1299 -0.09742,-0.21831 -0.09562,-0.0884 -0.294077,-0.13351 l -0.469081,-0.10283 q -0.387893,-0.0884 -0.573721,-0.28145 -0.184024,-0.19304 -0.184024,-0.48893 0,-0.24536 0.137116,-0.42938 0.137116,-0.18403 0.378873,-0.28687 0.241756,-0.10464 0.553875,-0.10464 0.449235,0 0.707229,0.19485 0.257994,0.19305 0.340985,0.51779 z" />
          <path
             id="path78"
             style="font-style:normal;font-variant:normal;font-weight:500;font-stretch:normal;font-family:inter;-inkscape-font-specification:'inter Medium';fill:#0e44a5;fill-opacity:1;stroke-width:0.34652"
             d="m 33.55546,120.48694 v -2.77118 h 0.539443 v 2.77118 z m 0.272428,-3.19877 q -0.140724,0 -0.241757,-0.0938 -0.09923,-0.0956 -0.09923,-0.22733 0,-0.13351 0.09923,-0.22732 0.101033,-0.0956 0.241757,-0.0956 0.140724,0 0.239952,0.0956 0.101033,0.0938 0.101033,0.22732 0,0.13171 -0.101033,0.22733 -0.09923,0.0938 -0.239952,0.0938 z" />
          <path
             id="path80"
             style="font-style:normal;font-variant:normal;font-weight:500;font-stretch:normal;font-family:inter;-inkscape-font-specification:'inter Medium';fill:#0e44a5;fill-opacity:1;stroke-width:0.34652"
             d="m 35.891263,120.54287 q -0.389698,0 -0.680166,-0.17861 -0.290469,-0.17862 -0.451039,-0.49975 -0.16057,-0.32114 -0.16057,-0.75053 0,-0.4312 0.16057,-0.75414 0.16057,-0.32294 0.451039,-0.50156 0.290468,-0.17861 0.680166,-0.17861 0.389697,0 0.680166,0.17861 0.290469,0.17862 0.451039,0.50156 0.16057,0.32294 0.16057,0.75414 0,0.42939 -0.16057,0.75053 -0.16057,0.32113 -0.451039,0.49975 -0.290469,0.17861 -0.680166,0.17861 z m 0.0018,-0.45285 q 0.252582,0 0.418564,-0.1335 0.165982,-0.13351 0.245365,-0.35542 0.08119,-0.22191 0.08119,-0.48893 0,-0.26521 -0.08119,-0.48712 -0.07938,-0.22371 -0.245365,-0.35903 -0.165982,-0.13531 -0.418564,-0.13531 -0.254386,0 -0.422172,0.13531 -0.165982,0.13532 -0.247169,0.35903 -0.07938,0.22191 -0.07938,0.48712 0,0.26702 0.07938,0.48893 0.08119,0.22191 0.247169,0.35542 0.167786,0.1335 0.422172,0.1335 z" />
          <path
             id="path82"
             style="font-style:normal;font-variant:normal;font-weight:500;font-stretch:normal;font-family:inter;-inkscape-font-specification:'inter Medium';fill:#0e44a5;fill-opacity:1;stroke-width:0.34652"
             d="m 38.989645,117.71576 v 0.43299 h -1.513686 v -0.43299 z m -1.107751,-0.66393 h 0.539443 v 2.62143 q 0,0.15697 0.04691,0.23635 0.04691,0.0776 0.120878,0.10644 0.07578,0.0271 0.164178,0.0271 0.06495,0 0.113662,-0.009 0.04871,-0.009 0.07577,-0.0144 l 0.09743,0.44563 q -0.04691,0.018 -0.133508,0.0361 -0.0866,0.0199 -0.216498,0.0217 -0.212891,0.004 -0.396914,-0.0758 -0.184024,-0.0794 -0.297686,-0.24537 -0.113662,-0.16598 -0.113662,-0.41676 z" />
          <path
             id="path84"
             style="font-style:normal;font-variant:normal;font-weight:500;font-stretch:normal;font-family:inter;-inkscape-font-specification:'inter Medium';fill:#0e44a5;fill-opacity:1;stroke-width:0.34652"
             d="m 40.65843,120.54287 q -0.409543,0 -0.705425,-0.17501 -0.294077,-0.1768 -0.454647,-0.49614 -0.158765,-0.32114 -0.158765,-0.75233 0,-0.42578 0.158765,-0.75053 0.16057,-0.32475 0.447431,-0.50697 0.288665,-0.18222 0.674754,-0.18222 0.23454,0 0.454647,0.0776 0.220107,0.0776 0.39511,0.24356 0.175003,0.16599 0.276035,0.4312 0.101033,0.2634 0.101033,0.64047 v 0.19124 h -2.202873 v -0.40413 h 1.674256 q 0,-0.21289 -0.0866,-0.37707 -0.0866,-0.16598 -0.243561,-0.2616 -0.155157,-0.0956 -0.364439,-0.0956 -0.227324,0 -0.396914,0.11186 -0.167787,0.11005 -0.259798,0.28866 -0.09021,0.17681 -0.09021,0.38429 v 0.31572 q 0,0.27784 0.09742,0.47269 0.09923,0.19485 0.276036,0.29769 0.176807,0.10103 0.413151,0.10103 0.153354,0 0.279644,-0.0433 0.126291,-0.0451 0.218303,-0.13351 0.09201,-0.0884 0.140724,-0.2183 l 0.510576,0.092 q -0.06134,0.22552 -0.220107,0.39511 -0.156961,0.16779 -0.39511,0.26161 -0.236344,0.092 -0.539442,0.092 z" />
          <path
             id="path87"
             style="font-style:normal;font-variant:normal;font-weight:500;font-stretch:normal;font-family:inter;-inkscape-font-specification:'inter Medium';fill:#0e44a5;fill-opacity:1;stroke-width:0.34652"
             d="m 42.365046,120.48694 v -2.77118 h 0.521401 v 0.44021 h 0.02887 q 0.07578,-0.22371 0.267015,-0.35181 0.193045,-0.1299 0.436606,-0.1299 0.05052,0 0.119074,0.004 0.07036,0.004 0.110053,0.009 v 0.51599 q -0.03247,-0.009 -0.115466,-0.0198 -0.08299,-0.0126 -0.165982,-0.0126 -0.19124,0 -0.340985,0.0812 -0.147941,0.0794 -0.23454,0.22191 -0.0866,0.14073 -0.0866,0.32114 v 1.6923 z" />
          <path
             id="path89"
             style="font-style:normal;font-variant:normal;font-weight:500;font-stretch:normal;font-family:inter;-inkscape-font-specification:'inter Medium';fill:#0e44a5;fill-opacity:1;stroke-width:0.34652"
             d="m 45.041125,120.54828 q -0.263407,0 -0.476297,-0.0974 -0.212891,-0.0992 -0.337377,-0.28687 -0.122683,-0.18763 -0.122683,-0.46005 0,-0.23454 0.09021,-0.38609 0.09021,-0.15155 0.243561,-0.23996 0.153353,-0.0884 0.342789,-0.1335 0.189436,-0.0451 0.386089,-0.0686 0.248974,-0.0289 0.404131,-0.0469 0.155157,-0.0198 0.225519,-0.0631 0.07036,-0.0433 0.07036,-0.14072 v -0.0126 q 0,-0.23634 -0.133507,-0.36624 -0.131703,-0.1299 -0.393306,-0.1299 -0.272427,0 -0.429389,0.12088 -0.155157,0.11907 -0.214694,0.26521 l -0.506968,-0.11547 q 0.09021,-0.25258 0.263407,-0.40774 0.175003,-0.15696 0.402327,-0.22732 0.227323,-0.0722 0.478101,-0.0722 0.165982,0 0.35181,0.0397 0.187632,0.0379 0.350006,0.14073 0.164178,0.10284 0.268819,0.29408 0.104641,0.18943 0.104641,0.49253 v 1.84024 h -0.526813 v -0.37887 h -0.02165 q -0.05232,0.10464 -0.156962,0.20567 -0.104641,0.10103 -0.268819,0.16779 -0.164178,0.0667 -0.393305,0.0667 z m 0.11727,-0.433 q 0.223715,0 0.38248,-0.0884 0.16057,-0.0884 0.243561,-0.23093 0.0848,-0.14434 0.0848,-0.30851 v -0.35723 q -0.02887,0.0289 -0.111858,0.0541 -0.08119,0.0234 -0.185828,0.0415 -0.104641,0.0162 -0.203869,0.0307 -0.09923,0.0126 -0.165983,0.0216 -0.156961,0.0199 -0.28686,0.0668 -0.128095,0.0469 -0.205674,0.13531 -0.07577,0.0866 -0.07577,0.23093 0,0.20026 0.14794,0.3031 0.147941,0.10103 0.377069,0.10103 z" />
          <path
             id="path91"
             style="font-style:normal;font-variant:normal;font-weight:500;font-stretch:normal;font-family:inter;-inkscape-font-specification:'inter Medium';fill:#0e44a5;fill-opacity:1;stroke-width:0.34652"
             d="m 47.039103,121.52613 v -3.81037 h 0.526813 v 0.44923 h 0.0451 q 0.04691,-0.0866 0.135312,-0.20026 0.0884,-0.11366 0.245365,-0.19846 0.156961,-0.0866 0.414955,-0.0866 0.335573,0 0.59898,0.16959 0.263406,0.16959 0.413151,0.48893 0.151549,0.31934 0.151549,0.76857 0,0.44923 -0.149745,0.77037 -0.149744,0.31934 -0.411347,0.49254 -0.261602,0.17139 -0.597175,0.17139 -0.252582,0 -0.413152,-0.0848 -0.158765,-0.0848 -0.248973,-0.19846 -0.09021,-0.11366 -0.13892,-0.20206 h -0.03248 v 1.47038 z m 0.528617,-2.42478 q 0,0.29227 0.0848,0.51238 0.08479,0.2201 0.245365,0.34459 0.16057,0.12268 0.393306,0.12268 0.241756,0 0.40413,-0.12809 0.162374,-0.1299 0.245365,-0.35181 0.0848,-0.22191 0.0848,-0.49975 0,-0.27423 -0.08299,-0.49254 -0.08119,-0.2183 -0.245365,-0.34459 -0.162374,-0.12629 -0.405934,-0.12629 -0.234541,0 -0.396915,0.12088 -0.160569,0.12088 -0.24356,0.33737 -0.08299,0.2165 -0.08299,0.50517 z" />
          <path
             id="path93"
             style="font-style:normal;font-variant:normal;font-weight:500;font-stretch:normal;font-family:inter;-inkscape-font-specification:'inter Medium';fill:#0e44a5;fill-opacity:1;stroke-width:0.34652"
             d="m 50.087401,120.48694 v -2.77118 h 0.539442 v 2.77118 z m 0.272427,-3.19877 q -0.140724,0 -0.241756,-0.0938 -0.09923,-0.0956 -0.09923,-0.22733 0,-0.13351 0.09923,-0.22732 0.101032,-0.0956 0.241756,-0.0956 0.140724,0 0.239953,0.0956 0.101033,0.0938 0.101033,0.22732 0,0.13171 -0.101033,0.22733 -0.09923,0.0938 -0.239953,0.0938 z" />
        </g>
        <g
           aria-label="Strandplan"
           transform="scale(1.0180593,0.98226105)"
           id="text1430"
           style="font-variant:normal;font-weight:normal;font-size:5.0805px;font-family:Inter;-inkscape-font-specification:Inter-Regular;writing-mode:lr-tb;fill:#9398e2;fill-opacity:1;fill-rule:nonzero;stroke:none;stroke-width:0.34652">
          <path
             d="m 27.51687,124.09877 q -0.03248,-0.27423 -0.263407,-0.42578 -0.230931,-0.15155 -0.566504,-0.15155 -0.245365,0 -0.429389,0.0794 -0.18222,0.0794 -0.285057,0.2183 -0.101032,0.13892 -0.101032,0.31573 0,0.14794 0.07036,0.25439 0.07217,0.10464 0.184024,0.175 0.111857,0.0686 0.23454,0.11366 0.122682,0.0433 0.225519,0.0704 l 0.375264,0.10104 q 0.144333,0.0379 0.32114,0.10464 0.178611,0.0667 0.340985,0.18222 0.164178,0.11366 0.270623,0.29227 0.106446,0.17861 0.106446,0.43841 0,0.29949 -0.156962,0.54125 -0.155157,0.24175 -0.454647,0.38428 -0.297686,0.14253 -0.723466,0.14253 -0.396914,0 -0.687383,-0.1281 -0.288665,-0.12809 -0.454647,-0.35722 -0.164178,-0.22913 -0.185828,-0.53222 h 0.461864 q 0.01804,0.20928 0.140724,0.34639 0.124486,0.13531 0.313923,0.20207 0.19124,0.065 0.411347,0.065 0.25619,0 0.460059,-0.083 0.20387,-0.0848 0.322944,-0.23454 0.119074,-0.15155 0.119074,-0.35362 0,-0.18402 -0.102836,-0.29949 -0.102837,-0.11546 -0.270624,-0.18763 -0.167786,-0.0722 -0.362635,-0.12629 l -0.454647,-0.1299 q -0.432997,-0.12449 -0.685579,-0.35542 -0.252581,-0.23093 -0.252581,-0.60439 0,-0.31031 0.167786,-0.54125 0.169591,-0.23273 0.454647,-0.36083 0.286861,-0.1299 0.640475,-0.1299 0.357223,0 0.635063,0.1281 0.277839,0.12629 0.440213,0.3464 0.164178,0.2201 0.173199,0.49975 z"
             style="fill:#97b0f9;fill-opacity:1;stroke-width:0.34652"
             id="path86" />
          <path
             d="m 29.798648,124.09877 v 0.36083 h -1.436107 v -0.36083 z m -1.017543,-0.66393 h 0.425781 v 2.64128 q 0,0.18042 0.05232,0.27062 0.05413,0.0884 0.137116,0.11908 0.08479,0.0289 0.178611,0.0289 0.07036,0 0.115466,-0.007 0.0451,-0.009 0.07217,-0.0144 l 0.0866,0.38248 q -0.0433,0.0162 -0.120879,0.0325 -0.07758,0.018 -0.196653,0.018 -0.180415,0 -0.353614,-0.0776 -0.171395,-0.0776 -0.285056,-0.23634 -0.111858,-0.15877 -0.111858,-0.40052 z"
             style="fill:#97b0f9;fill-opacity:1;stroke-width:0.34652"
             id="path88" />
          <path
             d="m 30.356405,126.86995 v -2.77118 h 0.411347 v 0.41856 h 0.02887 q 0.07578,-0.20567 0.274232,-0.33377 0.198457,-0.12809 0.44743,-0.12809 0.04691,0 0.11727,0.002 0.07036,0.002 0.106446,0.005 v 0.433 q -0.02165,-0.005 -0.09923,-0.0162 -0.07577,-0.0126 -0.16057,-0.0126 -0.202065,0 -0.360831,0.0848 -0.156961,0.083 -0.248973,0.23093 -0.09021,0.14614 -0.09021,0.33377 v 1.75364 z"
             style="fill:#97b0f9;fill-opacity:1;stroke-width:0.34652"
             id="path90" />
          <path
             d="m 32.980541,126.9349 q -0.263406,0 -0.478101,-0.0992 -0.214694,-0.10103 -0.340985,-0.29047 -0.126291,-0.19124 -0.126291,-0.46186 0,-0.23815 0.09382,-0.38609 0.09382,-0.14975 0.250778,-0.23454 0.156961,-0.0848 0.346397,-0.12629 0.191241,-0.0433 0.384285,-0.0686 0.252582,-0.0325 0.409544,-0.0487 0.158765,-0.018 0.230931,-0.0595 0.07397,-0.0415 0.07397,-0.14433 v -0.0144 q 0,-0.26701 -0.146137,-0.41495 -0.144332,-0.14794 -0.438409,-0.14794 -0.304903,0 -0.478101,0.13351 -0.173199,0.1335 -0.243561,0.28505 l -0.404131,-0.14433 q 0.108249,-0.25258 0.288665,-0.39331 0.182219,-0.14252 0.396914,-0.19845 0.216498,-0.0577 0.42578,-0.0577 0.133508,0 0.306707,0.0325 0.175003,0.0307 0.337377,0.12809 0.164178,0.0974 0.272427,0.29408 0.108249,0.19665 0.108249,0.52681 v 1.82581 h -0.42578 v -0.37526 h -0.02165 q -0.0433,0.0902 -0.144332,0.19304 -0.101033,0.10284 -0.26882,0.175 -0.167786,0.0722 -0.409543,0.0722 z m 0.06495,-0.38248 q 0.252582,0 0.42578,-0.0992 0.175003,-0.0992 0.263407,-0.25619 0.09021,-0.15696 0.09021,-0.33016 v -0.3897 q -0.02706,0.0325 -0.119074,0.0595 -0.09021,0.0253 -0.209282,0.0451 -0.11727,0.018 -0.229128,0.0325 -0.110054,0.0126 -0.178611,0.0216 -0.165983,0.0217 -0.310315,0.0704 -0.142528,0.0469 -0.230932,0.14253 -0.0866,0.0938 -0.0866,0.25619 0,0.22191 0.164178,0.33557 0.165982,0.11186 0.420368,0.11186 z"
             style="fill:#97b0f9;fill-opacity:1;stroke-width:0.34652"
             id="path92" />
          <path
             d="m 35.369876,125.20291 v 1.66704 h -0.425781 v -2.77118 h 0.411347 v 0.43299 h 0.03608 q 0.09743,-0.21108 0.295882,-0.33918 0.198457,-0.1299 0.51238,-0.1299 0.281448,0 0.492534,0.11547 0.211086,0.11366 0.328356,0.3464 0.11727,0.23093 0.11727,0.58454 v 1.76086 h -0.42578 v -1.73199 q 0,-0.32655 -0.169591,-0.50877 -0.16959,-0.18402 -0.465472,-0.18402 -0.203869,0 -0.364439,0.0884 -0.158766,0.0884 -0.250778,0.25799 -0.09201,0.16959 -0.09201,0.41135 z"
             style="fill:#97b0f9;fill-opacity:1;stroke-width:0.34652"
             id="path94" />
          <path
             d="m 38.881309,126.92768 q -0.346398,0 -0.611608,-0.175 -0.265211,-0.17681 -0.414956,-0.49795 -0.149745,-0.32294 -0.149745,-0.76315 0,-0.43661 0.149745,-0.75775 0.149745,-0.32114 0.41676,-0.49614 0.267015,-0.17501 0.617021,-0.17501 0.270623,0 0.427584,0.0902 0.158766,0.0884 0.241757,0.20207 0.0848,0.11186 0.131704,0.18402 h 0.03608 v -1.36394 h 0.42578 v 3.69491 h -0.411347 v -0.42578 h -0.05052 q -0.04691,0.0758 -0.133508,0.19124 -0.0866,0.11366 -0.247169,0.20387 -0.16057,0.0884 -0.427585,0.0884 z m 0.05773,-0.38248 q 0.25619,0 0.432997,-0.13351 0.176807,-0.13531 0.268819,-0.37346 0.09201,-0.23995 0.09201,-0.55387 0,-0.31032 -0.09021,-0.54305 -0.09021,-0.23454 -0.267015,-0.36444 -0.176808,-0.1317 -0.436606,-0.1317 -0.270623,0 -0.451039,0.13892 -0.178611,0.13711 -0.268819,0.37346 -0.0884,0.23454 -0.0884,0.52681 0,0.29588 0.09021,0.53764 0.09201,0.23995 0.270624,0.38248 0.180415,0.14072 0.447429,0.14072 z"
             style="fill:#97b0f9;fill-opacity:1;stroke-width:0.34652"
             id="path96" />
          <path
             d="m 40.903522,127.90914 v -3.81037 h 0.411347 v 0.44021 h 0.05052 q 0.04691,-0.0722 0.129899,-0.18402 0.08479,-0.11366 0.241756,-0.20207 0.158766,-0.0902 0.429389,-0.0902 0.350006,0 0.617021,0.17501 0.267015,0.175 0.41676,0.49614 0.149745,0.32114 0.149745,0.75775 0,0.44021 -0.149745,0.76315 -0.149745,0.32114 -0.414956,0.49795 -0.26521,0.175 -0.611608,0.175 -0.267015,0 -0.427585,-0.0884 -0.16057,-0.0902 -0.247169,-0.20387 -0.0866,-0.11547 -0.133507,-0.19124 h -0.03608 v 1.46497 z m 0.418564,-2.42478 q 0,0.31392 0.09201,0.55387 0.09201,0.23815 0.268819,0.37346 0.176807,0.13351 0.432997,0.13351 0.267015,0 0.445626,-0.14072 0.180416,-0.14253 0.270623,-0.38248 0.09201,-0.24176 0.09201,-0.53764 0,-0.29227 -0.09021,-0.52681 -0.0884,-0.23635 -0.268819,-0.37346 -0.178612,-0.13892 -0.449235,-0.13892 -0.259798,0 -0.436605,0.1317 -0.176808,0.1299 -0.267015,0.36444 -0.09021,0.23273 -0.09021,0.54305 z"
             style="fill:#97b0f9;fill-opacity:1;stroke-width:0.34652"
             id="path98" />
          <path
             d="m 44.342036,123.17504 v 3.69491 h -0.425781 v -3.69491 z"
             style="fill:#97b0f9;fill-opacity:1;stroke-width:0.34652"
             id="path100" />
          <path
             d="m 45.844362,126.9349 q -0.263406,0 -0.478101,-0.0992 -0.214694,-0.10103 -0.340985,-0.29047 -0.126291,-0.19124 -0.126291,-0.46186 0,-0.23815 0.09382,-0.38609 0.09382,-0.14975 0.250778,-0.23454 0.156961,-0.0848 0.346397,-0.12629 0.191241,-0.0433 0.384285,-0.0686 0.252582,-0.0325 0.409544,-0.0487 0.158765,-0.018 0.230931,-0.0595 0.07397,-0.0415 0.07397,-0.14433 v -0.0144 q 0,-0.26701 -0.146137,-0.41495 -0.144332,-0.14794 -0.438409,-0.14794 -0.304903,0 -0.478101,0.13351 -0.173199,0.1335 -0.243561,0.28505 l -0.404131,-0.14433 q 0.108249,-0.25258 0.288665,-0.39331 0.182219,-0.14252 0.396914,-0.19845 0.216498,-0.0577 0.42578,-0.0577 0.133508,0 0.306707,0.0325 0.175003,0.0307 0.337377,0.12809 0.164178,0.0974 0.272427,0.29408 0.108249,0.19665 0.108249,0.52681 v 1.82581 h -0.42578 v -0.37526 h -0.02165 q -0.0433,0.0902 -0.144332,0.19304 -0.101033,0.10284 -0.26882,0.175 -0.167786,0.0722 -0.409543,0.0722 z m 0.06495,-0.38248 q 0.252582,0 0.42578,-0.0992 0.175003,-0.0992 0.263407,-0.25619 0.09021,-0.15696 0.09021,-0.33016 v -0.3897 q -0.02706,0.0325 -0.119074,0.0595 -0.09021,0.0253 -0.209282,0.0451 -0.11727,0.018 -0.229128,0.0325 -0.110054,0.0126 -0.178611,0.0216 -0.165983,0.0217 -0.310315,0.0704 -0.142528,0.0469 -0.230932,0.14253 -0.0866,0.0938 -0.0866,0.25619 0,0.22191 0.164178,0.33557 0.165982,0.11186 0.420368,0.11186 z"
             style="fill:#97b0f9;fill-opacity:1;stroke-width:0.34652"
             id="path102" />
          <path
             d="m 48.233699,125.20291 v 1.66704 h -0.425781 v -2.77118 h 0.411347 v 0.43299 h 0.03608 q 0.09743,-0.21108 0.295882,-0.33918 0.198457,-0.1299 0.51238,-0.1299 0.281448,0 0.492534,0.11547 0.211086,0.11366 0.328356,0.3464 0.11727,0.23093 0.11727,0.58454 v 1.76086 h -0.42578 v -1.73199 q 0,-0.32655 -0.169591,-0.50877 -0.16959,-0.18402 -0.465472,-0.18402 -0.203869,0 -0.364439,0.0884 -0.158766,0.0884 -0.250778,0.25799 -0.09201,0.16959 -0.09201,0.41135 z"
             style="fill:#97b0f9;fill-opacity:1;stroke-width:0.34652"
             id="path104" />
        </g>
      </g>
    </g>
    <g
       id="g1269"
       transform="matrix(0.0788325,0,0,0.0788325,11.000899,107.99381)"
       style="display:none;fill:#000000;fill-opacity:1;enable-background:new">
      <g
         style="display:none"
         id="g2708">
        <path
           style="display:inline;fill:#000000;fill-opacity:1"
           id="path1251"
           d="m 107.26,82.42 c -6.31,16.5 9.11,31.92 25.61,25.61 4.76,-1.82 8.57,-5.63 10.4,-10.39 6.32,-16.5 -9.11,-31.94 -25.61,-25.62 -4.77,1.83 -8.58,5.64 -10.4,10.4 z"
           class="st5" />
        <path
           style="display:inline;fill:#000000;fill-opacity:1"
           id="path1253"
           d="m 83.01,207.94 c -23.82,-9.2 -31.2,-18.67 -34.45,-25.82 -6.92,-15.23 54.09,-4.74 64.02,-17.95 18.58,-24.72 -47.75,-91.63 -82,-101.13 33,15.5 85.92,72.08 72.25,94.5 -8.53,13.98 -64.88,4.25 -65.19,19.74 -0.2,9.83 12.2,27.45 42.1,42.54 22.38,11.29 81.08,32.14 81.08,32.14 v -20.5 c 0.01,0 -56.83,-15.41 -77.81,-23.52 z"
           class="st6" />
        <path
           style="display:inline;fill:#000000;fill-opacity:1"
           id="path1255"
           d="m 67.71,159.24 c -0.28,6.89 -0.5,14.13 -0.67,21.79 6.65,0.46 12.85,0.04 19.48,0.44 1.77,-8.67 3.53,-15.79 5.35,-21.64 -8.3,0.42 -16.54,2.89 -24.16,-0.59 z"
           class="st5" />
        <path
           class="st5"
           d="m 163,45.02 c 0,-1.85 0,-3.69 0,-5.54 -14.12,-0.59 -55.27,-3.73 -77.15,29.87 -20.25,31.11 -18.81,90.19 -19.81,198.82 2.8,0 4.74,0 7.44,0 C 95.53,93.13 100.75,142.05 163,139.98 c 0,-2.57 0,-5.6 0,-8.1 -83.34,-6.36 -77.76,-80.46 0,-86.86 z"
           id="path1257"
           style="display:inline;fill:#000000;fill-opacity:1;stroke:none;stroke-width:2.64479;stroke-miterlimit:4;stroke-dasharray:none;stroke-opacity:1" />
        <path
           style="display:inline;fill:#000000;fill-opacity:1;stroke-width:0.460152"
           d="m 12.078125,9.0429688 v 6.3867192 c 2.671531,1.818704 5.383009,3.929256 8.027344,6.24414 1.094356,-3.23828 2.427136,-6.091251 4.058593,-8.597656 h 0.002 c 0.970086,-1.489712 2.019539,-2.8281 3.128906,-4.0332032 z m 19.564453,0 c -1.796684,1.5622042 -3.472695,3.4251712 -4.943359,5.6835932 -1.665178,2.558206 -2.99708,5.623775 -4.072266,9.236329 2.267271,2.127533 4.456702,4.374246 6.488281,6.675781 3.524839,3.993216 6.539311,8.134121 8.628907,12.11914 0.03944,-0.0037 0.07769,-0.01428 0.117187,-0.01758 1.945552,-0.162369 3.978538,0.09609 6.220703,0.460938 2.892612,0.470696 6.189251,1.104397 10.021485,1.439453 V 43.208984 C 47.612399,41.957274 42.472771,39.729915 38.78125,36.792969 33.881866,32.89506 31.445115,27.777126 31.623047,22.644531 31.795674,17.664949 34.387811,12.856244 39.089844,9.0429688 Z m 12.613281,0 c -2.76587,1.6169312 -4.931553,3.5253422 -6.503906,5.5781252 0.556657,-0.356638 1.149141,-0.662085 1.775391,-0.902344 h 0.002 c 1.622727,-0.621554 3.249951,-0.841979 4.794922,-0.728516 2.574947,0.189105 4.921615,1.303588 6.644531,3.027344 2.756666,2.758009 3.954293,7.114283 2.296875,11.441406 v 0.002 c -0.997329,2.594141 -3.059878,4.659611 -5.65625,5.652343 -3.130279,1.197093 -6.272874,0.894729 -8.816406,-0.404297 0.569119,0.586983 1.177352,1.164861 1.871093,1.716797 3.138926,2.497307 7.604521,4.558698 13.439454,5.769531 V 9.0429688 Z m -0.40625,6.9277342 c -0.280081,-0.0093 -0.564689,-0.0033 -0.853515,0.01953 -0.770203,0.06089 -1.56846,0.23811 -2.384766,0.550782 -1.791106,0.687152 -3.233789,2.129785 -3.916016,3.914062 -1.248893,3.265739 -0.350524,6.254944 1.613282,8.21875 1.963805,1.963806 4.954961,2.862176 8.220703,1.613281 1.783647,-0.681982 3.224987,-2.122565 3.912109,-3.908203 1.250745,-3.265388 0.353168,-6.257202 -1.611328,-8.222656 -1.289199,-1.289829 -3.019896,-2.120374 -4.980469,-2.185546 z m -31.771484,5.050781 v 36.677735 c 1.08091,-0.125918 2.198054,-0.232839 3.333984,-0.330078 0.432932,-12.37068 1.295138,-22.320333 3.164063,-30.291016 -2.092015,-2.134922 -4.281896,-4.176986 -6.498047,-6.056641 z m 9.113281,8.816407 c -1.434675,7.236039 -2.187387,16.240085 -2.617187,27.255859 2.80902,-0.234183 5.582195,-0.487887 7.880859,-0.933594 1.504007,-5.128614 3.130295,-8.461428 5.232422,-10.582031 -0.08322,-0.222683 -0.154816,-0.439794 -0.248047,-0.667969 -1.544819,-3.780795 -4.394032,-8.13522 -7.927734,-12.40039 -0.743017,-0.896821 -1.521985,-1.787229 -2.320313,-2.671875 z M 31.5625,38.59375 c 1.044704,1.738453 1.97271,3.462523 2.658203,5.130859 0.155884,-0.07717 0.313864,-0.147213 0.472656,-0.214843 -0.893722,-1.599175 -1.939903,-3.24592 -3.130859,-4.916016 z m 7.730469,7.125 c -0.05352,-9.3e-4 -0.09955,0.0042 -0.152344,0.0039 1.926273,4.716673 2.353276,9.322754 -0.199219,12.71875 -1.646853,2.190831 -4.598888,2.921106 -7.951172,3.453125 -0.959767,0.152319 -1.966471,0.271038 -2.992187,0.375 -0.03179,0.137418 -0.06395,0.252988 -0.0957,0.392578 -0.855627,3.761892 -1.709946,8.39017 -2.59375,13.835938 4.832669,1.810684 13.345575,4.391139 20.761718,6.535156 3.096395,0.89523 5.664646,1.6132 8.033204,2.275391 V 47.714844 C 49.952165,47.357846 46.469905,46.653246 43.595703,46.185547 41.968434,45.920755 40.536369,45.740351 39.292969,45.71875 Z m -3.242188,0.482422 c -0.291315,0.113461 -0.572914,0.24625 -0.847656,0.410156 0.860025,3.187476 0.83792,6.191617 -0.666016,8.658203 -1.148761,1.882733 -3.218868,2.818886 -5.640625,3.441407 -0.04061,0.148767 -0.0825,0.279624 -0.123046,0.43164 0.599408,-0.0697 1.186536,-0.145881 1.74414,-0.234375 3.097183,-0.491535 5.368061,-1.434728 6.00586,-2.283203 1.681028,-2.236543 1.544385,-5.652476 -0.259766,-9.964844 -0.06267,-0.149803 -0.146048,-0.307622 -0.212891,-0.458984 z m -3.408203,3.039062 c -0.896809,1.373713 -1.780999,3.303742 -2.652344,5.867188 0.988107,-0.441934 1.67225,-0.932962 1.964844,-1.41211 0.696628,-1.142529 0.915471,-2.655291 0.6875,-4.455078 z m -7.050781,10.113282 c -0.515308,0.06805 -1.038665,0.131088 -1.556641,0.197265 0.522859,-0.03468 1.023837,-0.08028 1.539063,-0.11914 0.0063,-0.02511 0.01129,-0.05309 0.01758,-0.07813 z m -0.753906,3.177734 c -1.559925,0.108327 -3.133968,0.202373 -4.652344,0.292969 -0.617057,0.03682 -1.210427,0.07796 -1.806641,0.11914 -0.09081,3.245159 -0.151588,6.782585 -0.208984,10.353516 1.232787,0.676166 2.648892,1.361844 4.267578,2.054687 0.812252,-4.982116 1.604096,-9.250477 2.400391,-12.820312 z m -9.59375,0.671875 c -1.219996,0.127683 -2.263588,0.29374 -3.166016,0.488281 v 5.09961 c 0.773835,0.832325 1.765012,1.704228 3.029297,2.601562 0.03974,-2.773745 0.07489,-5.612856 0.136719,-8.189453 z m -3.166016,9.621094 v 1.685547 c 0.894241,0.76204 1.870802,1.529627 2.945313,2.302734 0.0068,-0.658717 0.02183,-1.224839 0.0293,-1.873047 -1.13585,-0.70955 -2.111881,-1.41554 -2.974609,-2.115234 z m 6.029297,3.835937 c -0.0096,0.710051 -0.01846,1.474653 -0.02734,2.197266 1.091059,0.679657 2.258508,1.352855 3.498047,2.021484 0.128074,-0.84868 0.254132,-1.638265 0.380859,-2.451172 -1.403803,-0.584776 -2.690236,-1.174611 -3.851562,-1.767578 z m -6.029297,1.732422 v 13.476563 h 2.826172 c 0.027,-4.006509 0.05604,-7.709095 0.08789,-11.392579 -1.042849,-0.691719 -2.002119,-1.387593 -2.914063,-2.083984 z m 12.751953,1.154297 c -0.14512,0.934803 -0.288303,1.789369 -0.435547,2.773437 5.992437,2.889941 15.736512,6.660798 23.458985,9.548829 h 6.25 V 88.451172 C 51.611294,87.755984 48.652479,86.926876 45.230469,85.9375 38.067806,83.866632 29.940797,81.418902 24.830078,79.546875 Z m -6.785156,2.814453 c -0.03341,3.116882 -0.06938,6.162913 -0.09766,9.507813 H 20 c 0.377288,-2.776216 0.743318,-5.332239 1.105469,-7.820313 -1.068944,-0.556308 -2.087464,-1.118942 -3.060547,-1.6875 z m 5.896484,3.097656 c -0.300165,2.075109 -0.598465,4.125937 -0.910156,6.410157 H 39.306641 C 33.709177,89.690555 28.062914,87.390725 23.941406,85.458984 Z"
           transform="matrix(2.1731936,0,0,2.1731936,30.580594,39.1395)"
           id="rect1259" />
      </g>
      <g
         style="display:inline"
         transform="matrix(12.685071,0,0,12.685071,-139.54573,-1370.688)"
         id="g2696">
        <text
           y="120.48694"
           x="25.048786"
           transform="scale(1.0180593,0.98226105)"
           style="font-style:normal;font-variant:normal;font-weight:normal;font-stretch:normal;font-size:5.0805px;font-family:Inter;-inkscape-font-specification:Inter;writing-mode:lr-tb;fill:#000000;fill-opacity:1;fill-rule:nonzero;stroke:none;stroke-width:0.34652"
           id="text2690"><tspan
             style="font-style:normal;font-variant:normal;font-weight:normal;font-stretch:normal;font-family:Inter;-inkscape-font-specification:Inter;fill:#000000;fill-opacity:1;stroke-width:0.34652"
             x="25.048786 27.766851 30.561125 33.192825 34.36134 37.333431 39.101444 42.002411 43.872032 46.676468 49.724766"
             y="120.48694"
             id="tspan2688">Fysioterapi</tspan></text>
        <text
           y="126.86995"
           x="25.048786"
           transform="scale(1.0180593,0.98226105)"
           style="font-variant:normal;font-weight:normal;font-size:5.0805px;font-family:Inter;-inkscape-font-specification:Inter-Regular;writing-mode:lr-tb;fill:#000000;fill-opacity:1;fill-rule:nonzero;stroke:none;stroke-width:0.34652"
           id="text2694"><tspan
             style="fill:#000000;fill-opacity:1;stroke-width:0.34652"
             x="25.048786 28.203775 29.966707 31.775366 34.554398 37.445202 40.513824 43.526558 44.639187 47.418221"
             y="126.86995"
             id="tspan2692">Strandplan</tspan></text>
      </g>
      <g
         style="display:inline;fill:#000000;fill-opacity:1;enable-background:new"
         transform="matrix(0.99999628,0,0,0.99999628,9.4257201e-4,0.00151443)"
         id="g1342">
        <path
           id="rect1344"
           transform="matrix(2.1731936,0,0,2.1731936,30.580594,39.1395)"
           d="m 12.078125,9.0429688 v 8.2656252 c 2.928438,2.060763 5.917268,4.484955 8.792969,7.115234 1.16694,-4.101478 2.65051,-7.587102 4.560547,-10.521484 1.207689,-1.854587 2.54657,-3.460086 3.972656,-4.8593752 z m 29.402344,0 C 27.464506,18.940302 30.762021,37.073843 54.103516,41.75 V 9.0429688 Z m 2.076172,5.4218752 c 6.080337,-0.0099 10.750637,6.048895 8.296875,12.455078 -0.842079,2.190325 -2.594832,3.94182 -4.785157,4.779297 -7.592512,2.903561 -14.686764,-4.190691 -11.783203,-11.783203 0.837477,-2.190325 2.590233,-3.943078 4.785156,-4.785157 1.186331,-0.4544 2.36034,-0.664191 3.486329,-0.666015 z m -31.478516,4.554687 v 40.203125 c 1.535745,-0.183815 3.1862,-0.323621 4.853516,-0.460937 0.447086,-13.393238 1.348673,-23.905317 3.349609,-32.105469 -2.612105,-2.72104 -5.395725,-5.321703 -8.203125,-7.636719 z m 27.238281,25.185547 c -0.857231,-0.0134 -1.661824,0.04937 -2.425781,0.199219 2.555366,5.227098 3.237507,9.941502 0.841797,13.128906 -1.584521,2.107907 -5.997499,2.901919 -10.949219,3.335938 -0.06587,0.273213 -0.131534,0.532666 -0.197265,0.814453 -0.175,0.749168 -0.350565,1.555186 -0.525391,2.365234 -0.806243,3.754818 -1.61355,8.195185 -2.445313,13.417969 0.174227,0.06889 0.331543,0.138196 0.509766,0.207031 6.85802,2.651027 21.759611,6.909978 29.978516,9.205078 V 46.199219 C 47.825383,45.644965 43.081845,44.263915 39.316406,44.205078 Z m -5.865234,1.804688 c -2.213803,1.82284 -4.044457,5.315481 -5.777344,11.441406 2.624487,-0.599906 4.675051,-1.498286 5.572266,-2.96875 1.350156,-2.214375 1.284841,-5.152912 0.205078,-8.472656 z m -16.59961,15.544922 c -1.756071,0.140127 -3.419867,0.304159 -4.773437,0.572265 v 8.744141 c 1.162574,1.05594 2.642011,2.147924 4.525391,3.253906 0.05984,-4.4181 0.137138,-8.641255 0.248046,-12.570312 z m -4.773437,14.93164 v 15.382813 h 4.347656 c 0.03242,-4.272187 0.0768,-8.294645 0.117188,-12.19336 -1.64863,-1.05994 -3.142016,-2.127544 -4.464844,-3.189453 z m 10.660156,6.710938 c -0.401055,2.714348 -0.809397,5.580754 -1.230469,8.671875 H 43.542969 C 35.943887,88.967808 27.573224,85.623294 22.738281,83.197266 Z"
           style="display:inline;fill:#000000;fill-opacity:1;stroke-width:0.460152" />
        <g
           id="g1365">
          <path
             id="path1348"
             transform="matrix(2.1731936,0,0,2.1731936,30.580594,39.1395)"
             d="m 0,10.998047 c 3.6774514,1.727288 7.8908954,4.568645 12.078125,8.021484 V 17.308594 C 7.7178676,14.240247 3.4953397,11.967557 0,10.998047 Z m 12.078125,48.224609 c -4.9321193,0.59033 -8.7754659,1.614899 -8.8300781,4.34375 -0.063487,3.12039 2.634994,7.946775 8.8300781,12.919922 V 70.871094 C 10.052546,69.031303 8.9582276,67.299507 8.2734375,65.792969 7.3484297,63.75715 9.0700222,62.722778 12.078125,62.126953 Z m 42.025391,27.65625 v 4.990235 H 43.542969 c 8.710331,3.325607 16.386719,6.060547 16.386719,6.060547 v -9.433594 c 0.0013,0 -2.475373,-0.681489 -5.826172,-1.617188 z"
             style="display:inline;fill:#000000;fill-opacity:1;stroke-width:0.460152" />
          <path
             id="path1352"
             transform="matrix(2.1731936,0,0,2.1731936,30.580594,39.1395)"
             d="M 56.107422,0 C 48.896219,-0.05256937 37.637894,0.96408344 29.404297,9.0429688 H 41.480469 C 46.112239,5.7722573 52.612224,3.3899645 60.933594,2.7050781 V 0.15625 C 59.715341,0.10534565 58.059777,0.01423259 56.107422,0 Z m -2.003906,41.75 v 4.449219 c 2.100424,0.185432 4.361644,0.285208 6.830078,0.203125 V 42.673828 C 58.49084,42.487412 56.216228,42.173254 54.103516,41.75 Z M 16.425781,91.869141 c -0.03314,4.366544 -0.06543,8.745719 -0.109375,13.519529 h 3.423828 c 0.61565,-4.88722 1.201361,-9.362877 1.767578,-13.519529 z"
             style="display:inline;fill:#000000;fill-opacity:1;stroke:none;stroke-width:1.21701;stroke-miterlimit:4;stroke-dasharray:none;stroke-opacity:1" />
        </g>
      </g>
    </g>
    <g
       style="display:none;fill:#000000;fill-opacity:1;enable-background:new"
       transform="matrix(0.0788325,0,0,0.0788325,11.000899,107.99381)"
       id="g5250">
      <g
         id="g5228"
         style="display:none">
        <path
           class="st5"
           d="m 107.26,82.42 c -6.31,16.5 9.11,31.92 25.61,25.61 4.76,-1.82 8.57,-5.63 10.4,-10.39 6.32,-16.5 -9.11,-31.94 -25.61,-25.62 -4.77,1.83 -8.58,5.64 -10.4,10.4 z"
           id="path5218"
           style="display:inline;fill:#000000;fill-opacity:1" />
        <path
           class="st6"
           d="m 83.01,207.94 c -23.82,-9.2 -31.2,-18.67 -34.45,-25.82 -6.92,-15.23 54.09,-4.74 64.02,-17.95 18.58,-24.72 -47.75,-91.63 -82,-101.13 33,15.5 85.92,72.08 72.25,94.5 -8.53,13.98 -64.88,4.25 -65.19,19.74 -0.2,9.83 12.2,27.45 42.1,42.54 22.38,11.29 81.08,32.14 81.08,32.14 v -20.5 c 0.01,0 -56.83,-15.41 -77.81,-23.52 z"
           id="path5220"
           style="display:inline;fill:#000000;fill-opacity:1" />
        <path
           class="st5"
           d="m 67.71,159.24 c -0.28,6.89 -0.5,14.13 -0.67,21.79 6.65,0.46 12.85,0.04 19.48,0.44 1.77,-8.67 3.53,-15.79 5.35,-21.64 -8.3,0.42 -16.54,2.89 -24.16,-0.59 z"
           id="path5222"
           style="display:inline;fill:#000000;fill-opacity:1" />
        <path
           style="display:inline;fill:#000000;fill-opacity:1;stroke:none;stroke-width:2.64479;stroke-miterlimit:4;stroke-dasharray:none;stroke-opacity:1"
           id="path5224"
           d="m 163,45.02 c 0,-1.85 0,-3.69 0,-5.54 -14.12,-0.59 -55.27,-3.73 -77.15,29.87 -20.25,31.11 -18.81,90.19 -19.81,198.82 2.8,0 4.74,0 7.44,0 C 95.53,93.13 100.75,142.05 163,139.98 c 0,-2.57 0,-5.6 0,-8.1 -83.34,-6.36 -77.76,-80.46 0,-86.86 z"
           class="st5" />
        <path
           id="path5226"
           transform="matrix(2.1731936,0,0,2.1731936,30.580594,39.1395)"
           d="m 12.078125,9.0429688 v 6.3867192 c 2.671531,1.818704 5.383009,3.929256 8.027344,6.24414 1.094356,-3.23828 2.427136,-6.091251 4.058593,-8.597656 h 0.002 c 0.970086,-1.489712 2.019539,-2.8281 3.128906,-4.0332032 z m 19.564453,0 c -1.796684,1.5622042 -3.472695,3.4251712 -4.943359,5.6835932 -1.665178,2.558206 -2.99708,5.623775 -4.072266,9.236329 2.267271,2.127533 4.456702,4.374246 6.488281,6.675781 3.524839,3.993216 6.539311,8.134121 8.628907,12.11914 0.03944,-0.0037 0.07769,-0.01428 0.117187,-0.01758 1.945552,-0.162369 3.978538,0.09609 6.220703,0.460938 2.892612,0.470696 6.189251,1.104397 10.021485,1.439453 V 43.208984 C 47.612399,41.957274 42.472771,39.729915 38.78125,36.792969 33.881866,32.89506 31.445115,27.777126 31.623047,22.644531 31.795674,17.664949 34.387811,12.856244 39.089844,9.0429688 Z m 12.613281,0 c -2.76587,1.6169312 -4.931553,3.5253422 -6.503906,5.5781252 0.556657,-0.356638 1.149141,-0.662085 1.775391,-0.902344 h 0.002 c 1.622727,-0.621554 3.249951,-0.841979 4.794922,-0.728516 2.574947,0.189105 4.921615,1.303588 6.644531,3.027344 2.756666,2.758009 3.954293,7.114283 2.296875,11.441406 v 0.002 c -0.997329,2.594141 -3.059878,4.659611 -5.65625,5.652343 -3.130279,1.197093 -6.272874,0.894729 -8.816406,-0.404297 0.569119,0.586983 1.177352,1.164861 1.871093,1.716797 3.138926,2.497307 7.604521,4.558698 13.439454,5.769531 V 9.0429688 Z m -0.40625,6.9277342 c -0.280081,-0.0093 -0.564689,-0.0033 -0.853515,0.01953 -0.770203,0.06089 -1.56846,0.23811 -2.384766,0.550782 -1.791106,0.687152 -3.233789,2.129785 -3.916016,3.914062 -1.248893,3.265739 -0.350524,6.254944 1.613282,8.21875 1.963805,1.963806 4.954961,2.862176 8.220703,1.613281 1.783647,-0.681982 3.224987,-2.122565 3.912109,-3.908203 1.250745,-3.265388 0.353168,-6.257202 -1.611328,-8.222656 -1.289199,-1.289829 -3.019896,-2.120374 -4.980469,-2.185546 z m -31.771484,5.050781 v 36.677735 c 1.08091,-0.125918 2.198054,-0.232839 3.333984,-0.330078 0.432932,-12.37068 1.295138,-22.320333 3.164063,-30.291016 -2.092015,-2.134922 -4.281896,-4.176986 -6.498047,-6.056641 z m 9.113281,8.816407 c -1.434675,7.236039 -2.187387,16.240085 -2.617187,27.255859 2.80902,-0.234183 5.582195,-0.487887 7.880859,-0.933594 1.504007,-5.128614 3.130295,-8.461428 5.232422,-10.582031 -0.08322,-0.222683 -0.154816,-0.439794 -0.248047,-0.667969 -1.544819,-3.780795 -4.394032,-8.13522 -7.927734,-12.40039 -0.743017,-0.896821 -1.521985,-1.787229 -2.320313,-2.671875 z M 31.5625,38.59375 c 1.044704,1.738453 1.97271,3.462523 2.658203,5.130859 0.155884,-0.07717 0.313864,-0.147213 0.472656,-0.214843 -0.893722,-1.599175 -1.939903,-3.24592 -3.130859,-4.916016 z m 7.730469,7.125 c -0.05352,-9.3e-4 -0.09955,0.0042 -0.152344,0.0039 1.926273,4.716673 2.353276,9.322754 -0.199219,12.71875 -1.646853,2.190831 -4.598888,2.921106 -7.951172,3.453125 -0.959767,0.152319 -1.966471,0.271038 -2.992187,0.375 -0.03179,0.137418 -0.06395,0.252988 -0.0957,0.392578 -0.855627,3.761892 -1.709946,8.39017 -2.59375,13.835938 4.832669,1.810684 13.345575,4.391139 20.761718,6.535156 3.096395,0.89523 5.664646,1.6132 8.033204,2.275391 V 47.714844 C 49.952165,47.357846 46.469905,46.653246 43.595703,46.185547 41.968434,45.920755 40.536369,45.740351 39.292969,45.71875 Z m -3.242188,0.482422 c -0.291315,0.113461 -0.572914,0.24625 -0.847656,0.410156 0.860025,3.187476 0.83792,6.191617 -0.666016,8.658203 -1.148761,1.882733 -3.218868,2.818886 -5.640625,3.441407 -0.04061,0.148767 -0.0825,0.279624 -0.123046,0.43164 0.599408,-0.0697 1.186536,-0.145881 1.74414,-0.234375 3.097183,-0.491535 5.368061,-1.434728 6.00586,-2.283203 1.681028,-2.236543 1.544385,-5.652476 -0.259766,-9.964844 -0.06267,-0.149803 -0.146048,-0.307622 -0.212891,-0.458984 z m -3.408203,3.039062 c -0.896809,1.373713 -1.780999,3.303742 -2.652344,5.867188 0.988107,-0.441934 1.67225,-0.932962 1.964844,-1.41211 0.696628,-1.142529 0.915471,-2.655291 0.6875,-4.455078 z m -7.050781,10.113282 c -0.515308,0.06805 -1.038665,0.131088 -1.556641,0.197265 0.522859,-0.03468 1.023837,-0.08028 1.539063,-0.11914 0.0063,-0.02511 0.01129,-0.05309 0.01758,-0.07813 z m -0.753906,3.177734 c -1.559925,0.108327 -3.133968,0.202373 -4.652344,0.292969 -0.617057,0.03682 -1.210427,0.07796 -1.806641,0.11914 -0.09081,3.245159 -0.151588,6.782585 -0.208984,10.353516 1.232787,0.676166 2.648892,1.361844 4.267578,2.054687 0.812252,-4.982116 1.604096,-9.250477 2.400391,-12.820312 z m -9.59375,0.671875 c -1.219996,0.127683 -2.263588,0.29374 -3.166016,0.488281 v 5.09961 c 0.773835,0.832325 1.765012,1.704228 3.029297,2.601562 0.03974,-2.773745 0.07489,-5.612856 0.136719,-8.189453 z m -3.166016,9.621094 v 1.685547 c 0.894241,0.76204 1.870802,1.529627 2.945313,2.302734 0.0068,-0.658717 0.02183,-1.224839 0.0293,-1.873047 -1.13585,-0.70955 -2.111881,-1.41554 -2.974609,-2.115234 z m 6.029297,3.835937 c -0.0096,0.710051 -0.01846,1.474653 -0.02734,2.197266 1.091059,0.679657 2.258508,1.352855 3.498047,2.021484 0.128074,-0.84868 0.254132,-1.638265 0.380859,-2.451172 -1.403803,-0.584776 -2.690236,-1.174611 -3.851562,-1.767578 z m -6.029297,1.732422 v 13.476563 h 2.826172 c 0.027,-4.006509 0.05604,-7.709095 0.08789,-11.392579 -1.042849,-0.691719 -2.002119,-1.387593 -2.914063,-2.083984 z m 12.751953,1.154297 c -0.14512,0.934803 -0.288303,1.789369 -0.435547,2.773437 5.992437,2.889941 15.736512,6.660798 23.458985,9.548829 h 6.25 V 88.451172 C 51.611294,87.755984 48.652479,86.926876 45.230469,85.9375 38.067806,83.866632 29.940797,81.418902 24.830078,79.546875 Z m -6.785156,2.814453 c -0.03341,3.116882 -0.06938,6.162913 -0.09766,9.507813 H 20 c 0.377288,-2.776216 0.743318,-5.332239 1.105469,-7.820313 -1.068944,-0.556308 -2.087464,-1.118942 -3.060547,-1.6875 z m 5.896484,3.097656 c -0.300165,2.075109 -0.598465,4.125937 -0.910156,6.410157 H 39.306641 C 33.709177,89.690555 28.062914,87.390725 23.941406,85.458984 Z"
           style="display:inline;fill:#000000;fill-opacity:1;stroke-width:0.460152" />
      </g>
      <rect
         y="39.126896"
         x="30.582197"
         height="229.06429"
         width="484.41949"
         id="rect5252"
         style="display:inline;opacity:1;fill:#000000;fill-opacity:1;stroke:none;stroke-width:23.1381;stroke-miterlimit:4;stroke-dasharray:none;stroke-opacity:1;paint-order:normal" />
      <g
         id="g5238"
         transform="matrix(12.685071,0,0,12.685071,-139.54573,-1370.688)"
         style="display:inline;fill:#ffffff;fill-opacity:1">
        <text
           id="text5232"
           style="font-style:normal;font-variant:normal;font-weight:normal;font-stretch:normal;font-size:5.0805px;font-family:Inter;-inkscape-font-specification:Inter;writing-mode:lr-tb;fill:#ffffff;fill-opacity:1;fill-rule:nonzero;stroke:none;stroke-width:0.34652"
           transform="scale(1.0180593,0.98226105)"
           x="25.048786"
           y="120.48694"><tspan
             id="tspan5230"
             y="120.48694"
             x="25.048786 27.766851 30.561125 33.192825 34.36134 37.333431 39.101444 42.002411 43.872032 46.676468 49.724766"
             style="font-style:normal;font-variant:normal;font-weight:normal;font-stretch:normal;font-family:Inter;-inkscape-font-specification:Inter;fill:#ffffff;fill-opacity:1;stroke-width:0.34652">Fysioterapi</tspan></text>
        <text
           id="text5236"
           style="font-variant:normal;font-weight:normal;font-size:5.0805px;font-family:Inter;-inkscape-font-specification:Inter-Regular;writing-mode:lr-tb;fill:#ffffff;fill-opacity:1;fill-rule:nonzero;stroke:none;stroke-width:0.34652"
           transform="scale(1.0180593,0.98226105)"
           x="25.048786"
           y="126.86995"><tspan
             id="tspan5234"
             y="126.86995"
             x="25.048786 28.203775 29.966707 31.775366 34.554398 37.445202 40.513824 43.526558 44.639187 47.418221"
             style="fill:#ffffff;fill-opacity:1;stroke-width:0.34652">Strandplan</tspan></text>
      </g>
      <g
         id="g5248"
         transform="matrix(0.99999628,0,0,0.99999628,9.4257201e-4,0.00151443)"
         style="display:inline;fill:#ffffff;fill-opacity:1;enable-background:new">
        <path
           style="display:inline;fill:#ffffff;fill-opacity:1;stroke-width:0.460152"
           d="m 12.078125,9.0429688 v 8.2656252 c 2.928438,2.060763 5.917268,4.484955 8.792969,7.115234 1.16694,-4.101478 2.65051,-7.587102 4.560547,-10.521484 1.207689,-1.854587 2.54657,-3.460086 3.972656,-4.8593752 z m 29.402344,0 C 27.464506,18.940302 30.762021,37.073843 54.103516,41.75 V 9.0429688 Z m 2.076172,5.4218752 c 6.080337,-0.0099 10.750637,6.048895 8.296875,12.455078 -0.842079,2.190325 -2.594832,3.94182 -4.785157,4.779297 -7.592512,2.903561 -14.686764,-4.190691 -11.783203,-11.783203 0.837477,-2.190325 2.590233,-3.943078 4.785156,-4.785157 1.186331,-0.4544 2.36034,-0.664191 3.486329,-0.666015 z m -31.478516,4.554687 v 40.203125 c 1.535745,-0.183815 3.1862,-0.323621 4.853516,-0.460937 0.447086,-13.393238 1.348673,-23.905317 3.349609,-32.105469 -2.612105,-2.72104 -5.395725,-5.321703 -8.203125,-7.636719 z m 27.238281,25.185547 c -0.857231,-0.0134 -1.661824,0.04937 -2.425781,0.199219 2.555366,5.227098 3.237507,9.941502 0.841797,13.128906 -1.584521,2.107907 -5.997499,2.901919 -10.949219,3.335938 -0.06587,0.273213 -0.131534,0.532666 -0.197265,0.814453 -0.175,0.749168 -0.350565,1.555186 -0.525391,2.365234 -0.806243,3.754818 -1.61355,8.195185 -2.445313,13.417969 0.174227,0.06889 0.331543,0.138196 0.509766,0.207031 6.85802,2.651027 21.759611,6.909978 29.978516,9.205078 V 46.199219 C 47.825383,45.644965 43.081845,44.263915 39.316406,44.205078 Z m -5.865234,1.804688 c -2.213803,1.82284 -4.044457,5.315481 -5.777344,11.441406 2.624487,-0.599906 4.675051,-1.498286 5.572266,-2.96875 1.350156,-2.214375 1.284841,-5.152912 0.205078,-8.472656 z m -16.59961,15.544922 c -1.756071,0.140127 -3.419867,0.304159 -4.773437,0.572265 v 8.744141 c 1.162574,1.05594 2.642011,2.147924 4.525391,3.253906 0.05984,-4.4181 0.137138,-8.641255 0.248046,-12.570312 z m -4.773437,14.93164 v 15.382813 h 4.347656 c 0.03242,-4.272187 0.0768,-8.294645 0.117188,-12.19336 -1.64863,-1.05994 -3.142016,-2.127544 -4.464844,-3.189453 z m 10.660156,6.710938 c -0.401055,2.714348 -0.809397,5.580754 -1.230469,8.671875 H 43.542969 C 35.943887,88.967808 27.573224,85.623294 22.738281,83.197266 Z"
           transform="matrix(2.1731936,0,0,2.1731936,30.580594,39.1395)"
           id="path5240" />
        <g
           style="fill:#ffffff;fill-opacity:1"
           id="g5246">
          <path
             style="display:inline;fill:#ffffff;fill-opacity:1;stroke-width:0.460152"
             d="m 0,10.998047 c 3.6774514,1.727288 7.8908954,4.568645 12.078125,8.021484 V 17.308594 C 7.7178676,14.240247 3.4953397,11.967557 0,10.998047 Z m 12.078125,48.224609 c -4.9321193,0.59033 -8.7754659,1.614899 -8.8300781,4.34375 -0.063487,3.12039 2.634994,7.946775 8.8300781,12.919922 V 70.871094 C 10.052546,69.031303 8.9582276,67.299507 8.2734375,65.792969 7.3484297,63.75715 9.0700222,62.722778 12.078125,62.126953 Z m 42.025391,27.65625 v 4.990235 H 43.542969 c 8.710331,3.325607 16.386719,6.060547 16.386719,6.060547 v -9.433594 c 0.0013,0 -2.475373,-0.681489 -5.826172,-1.617188 z"
             transform="matrix(2.1731936,0,0,2.1731936,30.580594,39.1395)"
             id="path5242" />
          <path
             style="display:inline;fill:#ffffff;fill-opacity:1;stroke:none;stroke-width:1.21701;stroke-miterlimit:4;stroke-dasharray:none;stroke-opacity:1"
             d="M 56.107422,0 C 48.896219,-0.05256937 37.637894,0.96408344 29.404297,9.0429688 H 41.480469 C 46.112239,5.7722573 52.612224,3.3899645 60.933594,2.7050781 V 0.15625 C 59.715341,0.10534565 58.059777,0.01423259 56.107422,0 Z m -2.003906,41.75 v 4.449219 c 2.100424,0.185432 4.361644,0.285208 6.830078,0.203125 V 42.673828 C 58.49084,42.487412 56.216228,42.173254 54.103516,41.75 Z M 16.425781,91.869141 c -0.03314,4.366544 -0.06543,8.745719 -0.109375,13.519529 h 3.423828 c 0.61565,-4.88722 1.201361,-9.362877 1.767578,-13.519529 z"
             transform="matrix(2.1731936,0,0,2.1731936,30.580594,39.1395)"
             id="path5244" />
        </g>
      </g>
    </g>
  </g>
</svg>
